<svg id="Layer_1" data-name="Layer 1" xmlns="http://www.w3.org/2000/svg" viewBox="0 0 327.03 327.03"><defs><style>.cls-1{fill:#fff;}.cls-2{fill:#069;}</style></defs><title>Facebook_logo</title><polygon class="cls-1" points="137.03 41 282.96 41 282.96 326.85 118.03 326.85 118.03 41 137.03 41"/><path class="cls-2" d="M375.45,92.48H136.55a44.07,44.07,0,0,0-44.06,44.07v238.9a44.06,44.06,0,0,0,44.06,44.06H254.37l.21-116.86H224.21a7.16,7.16,0,0,1-7.16-7.13l-.15-37.68a7.17,7.17,0,0,1,7.17-7.19h30.31v-36.4c0-42.23,25.79-65.23,63.47-65.23h30.93a7.16,7.16,0,0,1,7.16,7.16v31.76a7.17,7.17,0,0,1-7.16,7.17h-19c-20.49,0-24.46,9.73-24.46,24v31.52h45a7.15,7.15,0,0,1,7.11,8L353,296.33a7.17,7.17,0,0,1-7.12,6.32H305.55l-.21,116.87h70.11a44.07,44.07,0,0,0,44.06-44.07V136.55a44.07,44.07,0,0,0-44.06-44.07Zm0,0" transform="translate(-92.49 -92.48)"/></svg>