<svg id="Layer_1" data-name="Layer 1" xmlns="http://www.w3.org/2000/svg" viewBox="0 0 192.78 188.02"><defs><style>.cls-1{fill:#069;fill-rule:evenodd;}</style></defs><title>GitHub_Logo</title><path class="cls-1" d="M200.6,107.32a96.4,96.4,0,0,0-30.46,187.85c4.82.89,6.58-2.09,6.58-4.64,0-2.29-.08-8.35-.13-16.4-26.81,5.83-32.47-12.92-32.47-12.92-4.38-11.13-10.7-14.1-10.7-14.1-8.75-6,.66-5.86.66-5.86,9.67.68,14.76,9.94,14.76,9.94,8.6,14.73,22.56,10.47,28.06,8,.87-6.22,3.36-10.47,6.12-12.88-21.41-2.43-43.91-10.7-43.91-47.64A37.3,37.3,0,0,1,149,172.8c-1-2.43-4.3-12.24.95-25.51,0,0,8.09-2.59,26.5,9.89a91.24,91.24,0,0,1,48.27,0c18.4-12.48,26.48-9.89,26.48-9.89,5.26,13.27,2,23.08,1,25.51a37.24,37.24,0,0,1,9.9,25.87c0,37-22.53,45.18-44,47.56,3.47,3,6.55,8.86,6.55,17.85,0,12.89-.12,23.29-.12,26.45,0,2.57,1.74,5.57,6.63,4.63A96.4,96.4,0,0,0,200.6,107.32Z" transform="translate(-104.22 -107.32)"/></svg>