<svg id="Layer_1" data-name="Layer 1" xmlns="http://www.w3.org/2000/svg" viewBox="0 0 1919.5 1080"><defs><style>.cls-1{fill:none;stroke:#b8b7b5;stroke-miterlimit:10;}</style></defs><title>grid</title><line class="cls-1" x1="1919.5" y1="41.5" y2="41.5"/><line class="cls-1" x1="1919.5" y1="81.5" y2="81.5"/><line class="cls-1" x1="1919.5" y1="81.5" y2="81.5"/><line class="cls-1" x1="1919.5" y1="121.5" y2="121.5"/><line class="cls-1" x1="1919.5" y1="121.5" y2="121.5"/><line class="cls-1" x1="1919.5" y1="161.5" y2="161.5"/><line class="cls-1" x1="1919.5" y1="161.5" y2="161.5"/><line class="cls-1" x1="1919.5" y1="201.5" y2="201.5"/><line class="cls-1" x1="1919.5" y1="201.5" y2="201.5"/><line class="cls-1" x1="1919.5" y1="241.5" y2="241.5"/><line class="cls-1" x1="1919.5" y1="241.5" y2="241.5"/><line class="cls-1" x1="1919.5" y1="281.5" y2="281.5"/><line class="cls-1" x1="1919.5" y1="281.5" y2="281.5"/><line class="cls-1" x1="1919.5" y1="321.5" y2="321.5"/><line class="cls-1" x1="1919.5" y1="321.5" y2="321.5"/><line class="cls-1" x1="1919.5" y1="361.5" y2="361.5"/><line class="cls-1" x1="1919.5" y1="361.5" y2="361.5"/><line class="cls-1" x1="1919.5" y1="401.5" y2="401.5"/><line class="cls-1" x1="1919.5" y1="401.5" y2="401.5"/><line class="cls-1" x1="1919.5" y1="441.5" y2="441.5"/><line class="cls-1" x1="1919.5" y1="441.5" y2="441.5"/><line class="cls-1" x1="1919.5" y1="481.5" y2="481.5"/><line class="cls-1" x1="1919.5" y1="481.5" y2="481.5"/><line class="cls-1" x1="1919.5" y1="521.5" y2="521.5"/><line class="cls-1" x1="1919.5" y1="521.5" y2="521.5"/><line class="cls-1" x1="1919.5" y1="561.5" y2="561.5"/><line class="cls-1" x1="1919.5" y1="561.5" y2="561.5"/><line class="cls-1" x1="1919.5" y1="601.5" y2="601.5"/><line class="cls-1" x1="1919.5" y1="601.5" y2="601.5"/><line class="cls-1" x1="1919.5" y1="641.5" y2="641.5"/><line class="cls-1" x1="1919.5" y1="641.5" y2="641.5"/><line class="cls-1" x1="1919.5" y1="681.5" y2="681.5"/><line class="cls-1" x1="1919.5" y1="681.5" y2="681.5"/><line class="cls-1" x1="1919.5" y1="721.5" y2="721.5"/><line class="cls-1" x1="1919.5" y1="721.5" y2="721.5"/><line class="cls-1" x1="1919.5" y1="761.5" y2="761.5"/><line class="cls-1" x1="1919.5" y1="761.5" y2="761.5"/><line class="cls-1" x1="1919.5" y1="801.5" y2="801.5"/><line class="cls-1" x1="1919.5" y1="801.5" y2="801.5"/><line class="cls-1" x1="1919.5" y1="841.5" y2="841.5"/><line class="cls-1" x1="1919.5" y1="841.5" y2="841.5"/><line class="cls-1" x1="1919.5" y1="881.5" y2="881.5"/><line class="cls-1" x1="1919.5" y1="881.5" y2="881.5"/><line class="cls-1" x1="1919.5" y1="921.5" y2="921.5"/><line class="cls-1" x1="1919.5" y1="921.5" y2="921.5"/><line class="cls-1" x1="1919.5" y1="961.5" y2="961.5"/><line class="cls-1" x1="1919.5" y1="961.5" y2="961.5"/><line class="cls-1" x1="1919.5" y1="1001.5" y2="1001.5"/><line class="cls-1" x1="1919.5" y1="1001.5" y2="1001.5"/><line class="cls-1" x1="1919.5" y1="1041.5" y2="1041.5"/><line class="cls-1" x1="1000" y1="1080" x2="1000"/><line class="cls-1" x1="1040" y1="1080" x2="1040"/><line class="cls-1" x1="1080" y1="1080" x2="1080"/><line class="cls-1" x1="1120" y1="1080" x2="1120"/><line class="cls-1" x1="1160" y1="1080" x2="1160"/><line class="cls-1" x1="1200" y1="1080" x2="1200"/><line class="cls-1" x1="1240" y1="1080" x2="1240"/><line class="cls-1" x1="1280" y1="1080" x2="1280"/><line class="cls-1" x1="1320" y1="1080" x2="1320"/><line class="cls-1" x1="1360" y1="1080" x2="1360"/><line class="cls-1" x1="1400" y1="1080" x2="1400"/><line class="cls-1" x1="1440" y1="1080" x2="1440"/><line class="cls-1" x1="1480" y1="1080" x2="1480"/><line class="cls-1" x1="1520" y1="1080" x2="1520"/><line class="cls-1" x1="1560" y1="1080" x2="1560"/><line class="cls-1" x1="1600" y1="1080" x2="1600"/><line class="cls-1" x1="1640" y1="1080" x2="1640"/><line class="cls-1" x1="1680" y1="1080" x2="1680"/><line class="cls-1" x1="1720" y1="1080" x2="1720"/><line class="cls-1" x1="1760" y1="1080" x2="1760"/><line class="cls-1" x1="1800" y1="1080" x2="1800"/><line class="cls-1" x1="1840" y1="1080" x2="1840"/><line class="cls-1" x1="1880" y1="1080" x2="1880"/><line class="cls-1" x1="960" y1="1080" x2="960"/><line class="cls-1" x1="960" y1="1080" x2="960"/><line class="cls-1" x1="920" y1="1080" x2="920"/><line class="cls-1" x1="920" y1="1080" x2="920"/><line class="cls-1" x1="880" y1="1080" x2="880"/><line class="cls-1" x1="880" y1="1080" x2="880"/><line class="cls-1" x1="840" y1="1080" x2="840"/><line class="cls-1" x1="840" y1="1080" x2="840"/><line class="cls-1" x1="800" y1="1080" x2="800"/><line class="cls-1" x1="800" y1="1080" x2="800"/><line class="cls-1" x1="760" y1="1080" x2="760"/><line class="cls-1" x1="760" y1="1080" x2="760"/><line class="cls-1" x1="720" y1="1080" x2="720"/><line class="cls-1" x1="720" y1="1080" x2="720"/><line class="cls-1" x1="680" y1="1080" x2="680"/><line class="cls-1" x1="680" y1="1080" x2="680"/><line class="cls-1" x1="640" y1="1080" x2="640"/><line class="cls-1" x1="640" y1="1080" x2="640"/><line class="cls-1" x1="600" y1="1080" x2="600"/><line class="cls-1" x1="600" y1="1080" x2="600"/><line class="cls-1" x1="560" y1="1080" x2="560"/><line class="cls-1" x1="560" y1="1080" x2="560"/><line class="cls-1" x1="520" y1="1080" x2="520"/><line class="cls-1" x1="520" y1="1080" x2="520"/><line class="cls-1" x1="480" y1="1080" x2="480"/><line class="cls-1" x1="480" y1="1080" x2="480"/><line class="cls-1" x1="440" y1="1080" x2="440"/><line class="cls-1" x1="440" y1="1080" x2="440"/><line class="cls-1" x1="400" y1="1080" x2="400"/><line class="cls-1" x1="400" y1="1080" x2="400"/><line class="cls-1" x1="360" y1="1080" x2="360"/><line class="cls-1" x1="360" y1="1080" x2="360"/><line class="cls-1" x1="320" y1="1080" x2="320"/><line class="cls-1" x1="320" y1="1080" x2="320"/><line class="cls-1" x1="280" y1="1080" x2="280"/><line class="cls-1" x1="280" y1="1080" x2="280"/><line class="cls-1" x1="240" y1="1080" x2="240"/><line class="cls-1" x1="240" y1="1080" x2="240"/><line class="cls-1" x1="200" y1="1080" x2="200"/><line class="cls-1" x1="200" y1="1080" x2="200"/><line class="cls-1" x1="160" y1="1080" x2="160"/><line class="cls-1" x1="160" y1="1080" x2="160"/><line class="cls-1" x1="120" y1="1080" x2="120"/><line class="cls-1" x1="120" y1="1080" x2="120"/><line class="cls-1" x1="80" y1="1080" x2="80"/><line class="cls-1" x1="80" y1="1080" x2="80"/><line class="cls-1" x1="40" y1="1080" x2="40"/><line class="cls-1" x1="40" y1="1080" x2="40"/></svg>