<?xml version="1.0" encoding="utf-8"?>
<!-- Generator: Adobe Illustrator 24.3.0, SVG Export Plug-In . SVG Version: 6.00 Build 0)  -->
<svg version="1.1" id="Layer_1" xmlns="http://www.w3.org/2000/svg" xmlns:xlink="http://www.w3.org/1999/xlink" x="0px" y="0px"
	 viewBox="0 0 117 117" style="enable-background:new 0 0 117 117;" xml:space="preserve">
<style type="text/css">
	.st0{fill:#942A5C;}
	.st1{fill:#151F4E;}
	.st2{fill:#8ADF32;}
	.st3{fill:#FFFFFF;}
</style>
<circle class="st0" cx="58.5" cy="58.5" r="54.5"/>
<path class="st1" d="M58.5,117C26.2,117,0,90.8,0,58.5C0,26.2,26.2,0,58.5,0C90.8,0,117,26.2,117,58.5c0,0,0,0,0,0
	C117,90.8,90.8,117,58.5,117z M58.5,8.1C30.7,8.1,8.1,30.7,8.1,58.5S30.6,109,58.5,109s50.4-22.6,50.4-50.4c0,0,0,0,0,0
	C108.9,30.7,86.4,8.1,58.5,8.1z"/>
<path class="st2" d="M12.5,62.4v-8.9c1.3-0.5,2.8-0.7,4.2-0.7c0.4,0,0.8,0,1.2,0c0.4,0,0.9,0.1,1.3,0.2l-0.3,1.5
	c-0.4-0.1-0.8-0.2-1.1-0.2c-0.4,0-0.7-0.1-1.1-0.1c-0.8,0-1.7,0.1-2.5,0.3v7.8L12.5,62.4z"/>
<path class="st2" d="M27,54.5c0,0.4-0.1,0.8-0.4,1.1c-0.3,0.3-0.7,0.5-1.1,0.5c-0.4,0-0.8-0.2-1.1-0.5c-0.5-0.6-0.5-1.5,0-2.2
	c0.3-0.3,0.7-0.5,1.1-0.5c0.4,0,0.8,0.2,1.1,0.5C26.9,53.8,27,54.1,27,54.5z M27,61.1c0,0.4-0.1,0.8-0.4,1.1
	c-0.3,0.3-0.7,0.5-1.1,0.5c-0.4,0-0.8-0.1-1.1-0.5c-0.5-0.6-0.5-1.5,0-2.2c0.3-0.3,0.7-0.5,1.1-0.5c0.4,0,0.8,0.2,1.1,0.5
	C26.9,60.3,27,60.7,27,61.1z"/>
<path class="st3" d="M39.9,56c-0.1,0.3-0.1,0.5-0.2,0.8c-0.1,0.3-0.3,0.6-0.4,0.8c-0.2,0.3-0.4,0.5-0.7,0.6
	c-0.3,0.2-0.7,0.3-1.1,0.3c-0.3,0-0.7-0.1-1-0.2c-0.3-0.1-0.6-0.3-0.9-0.5c-0.3-0.2-0.6-0.4-0.9-0.6c-0.3-0.2-0.6-0.3-1-0.3
	c-0.2,0-0.3,0-0.5,0.1c-0.1,0.1-0.2,0.2-0.3,0.3c-0.1,0.1-0.2,0.3-0.2,0.4c-0.1,0.2-0.1,0.3-0.2,0.5l-1.2-0.3
	c0.1-0.3,0.1-0.5,0.2-0.8c0.1-0.3,0.3-0.6,0.4-0.8c0.2-0.3,0.4-0.5,0.7-0.6c0.3-0.2,0.7-0.3,1.1-0.3c0.3,0,0.7,0.1,1,0.2
	c0.3,0.1,0.6,0.3,0.9,0.5l0.9,0.6c0.3,0.2,0.6,0.3,1,0.3c0.2,0,0.3,0,0.5-0.1c0.1-0.1,0.3-0.2,0.3-0.3c0.1-0.1,0.2-0.3,0.2-0.4
	c0.1-0.2,0.1-0.3,0.2-0.5L39.9,56z"/>
<path class="st3" d="M45.4,60.7c0.4,0,0.8,0,1.2-0.1c0.3-0.1,0.5-0.2,0.8-0.3c0.2-0.1,0.3-0.3,0.4-0.5c0.1-0.2,0.1-0.4,0.1-0.6
	c0-0.3-0.1-0.6-0.2-0.9c-0.2-0.3-0.4-0.5-0.7-0.6c-0.3-0.2-0.6-0.4-0.9-0.5c-0.4-0.1-0.7-0.3-1.1-0.4s-0.7-0.3-1.1-0.4
	c-0.4-0.1-0.7-0.4-1-0.6c-0.3-0.2-0.5-0.5-0.7-0.9c-0.2-0.4-0.3-0.8-0.3-1.2c0-0.8,0.2-1.5,0.8-2.1c0.6-0.6,1.4-0.9,2.2-1v-2.1h1.5
	v2c0.5,0,1,0.1,1.5,0.2c0.4,0.1,0.7,0.2,1.1,0.3l-0.3,1.4c-0.3-0.1-0.6-0.2-1.1-0.3c-0.5-0.1-1.1-0.2-1.6-0.2
	c-0.6,0-1.2,0.1-1.7,0.4c-0.4,0.3-0.6,0.7-0.6,1.2c0,0.2,0.1,0.5,0.2,0.7c0.1,0.2,0.3,0.4,0.5,0.5c0.2,0.2,0.5,0.3,0.8,0.4
	c0.3,0.1,0.6,0.3,1,0.4s0.9,0.4,1.3,0.6c0.4,0.2,0.8,0.4,1.1,0.7c0.3,0.3,0.6,0.6,0.8,1c0.2,0.4,0.3,0.9,0.3,1.4
	c0,0.7-0.3,1.5-0.8,2c-0.7,0.6-1.5,1-2.4,1v2.3h-1.5v-2.3c-0.7,0-1.4-0.1-2.1-0.3c-0.4-0.1-0.8-0.3-1.2-0.5l0.4-1.4
	c0.4,0.2,0.9,0.4,1.3,0.5C44.1,60.6,44.7,60.7,45.4,60.7z"/>
<g>
	<path class="st3" d="M67.5,50.2h1.8v13.1h-1.8v-6.1h-6.4v6.1h-1.8V50.2h1.8v5.5h6.4V50.2z"/>
	<path class="st3" d="M73.4,51.7c-0.3,0-0.6-0.1-0.8-0.3c-0.2-0.2-0.3-0.5-0.3-0.8s0.1-0.6,0.3-0.8c0.2-0.2,0.5-0.3,0.8-0.3
		s0.6,0.1,0.8,0.3c0.2,0.2,0.3,0.5,0.3,0.8s-0.1,0.6-0.3,0.8C74,51.6,73.7,51.7,73.4,51.7z M74.3,63.3h-1.8v-9.8h1.8V63.3z"/>
</g>
<rect class="rect" x="80" y="48" width="4" height="18" fill="white" opacity="0">
     <animate  attributeName="opacity" values="0;1;0" dur="2s" repeatCount="indefinite"/>
</rect>
</svg>
