<svg id="Layer_1" data-name="Layer 1" xmlns="http://www.w3.org/2000/svg" viewBox="0 0 117.04 117.04"><defs><style>.cls-1{fill:#942a5c;}.cls-2{fill:#151f4e;}.cls-3{fill:#8adf32;}.cls-4{fill:#fff;}</style></defs><title>laptop-popup</title><circle class="cls-1" cx="58.52" cy="58.52" r="54.47"/><path class="cls-2" d="M199.48,256.37A58.52,58.52,0,1,1,258,197.86,58.58,58.58,0,0,1,199.48,256.37Zm0-108.94a50.43,50.43,0,1,0,50.42,50.43A50.48,50.48,0,0,0,199.48,147.43Z" transform="translate(-140.96 -139.33)"/><path class="cls-3" d="M153.47,201.69v-8.87a12.82,12.82,0,0,1,4.17-.71c.43,0,.84,0,1.23,0a10.26,10.26,0,0,1,1.29.22l-.3,1.47a6.56,6.56,0,0,0-1.14-.23,9.11,9.11,0,0,0-1.08-.05,9.53,9.53,0,0,0-2.51.34v7.78Z" transform="translate(-140.96 -139.33)"/><path class="cls-3" d="M168,193.87a1.58,1.58,0,0,1-.4,1.07,1.36,1.36,0,0,1-1.07.47,1.39,1.39,0,0,1-1.1-.47,1.66,1.66,0,0,1,0-2.16,1.39,1.39,0,0,1,1.1-.47,1.36,1.36,0,0,1,1.07.47A1.6,1.6,0,0,1,168,193.87Zm0,6.53a1.58,1.58,0,0,1-.4,1.07,1.35,1.35,0,0,1-1.07.46,1.38,1.38,0,0,1-1.1-.46,1.66,1.66,0,0,1,0-2.16,1.39,1.39,0,0,1,1.1-.47,1.36,1.36,0,0,1,1.07.47A1.6,1.6,0,0,1,168,200.4Z" transform="translate(-140.96 -139.33)"/><path class="cls-4" d="M180.87,195.35a5.45,5.45,0,0,1-.21.78,2.68,2.68,0,0,1-.45.83,2.55,2.55,0,0,1-.73.65,2.15,2.15,0,0,1-1.07.26,2.33,2.33,0,0,1-1-.21,6.78,6.78,0,0,1-.88-.48c-.33-.18-.64-.37-.93-.56a1.77,1.77,0,0,0-1-.28.88.88,0,0,0-.49.13,1.15,1.15,0,0,0-.33.33,2.12,2.12,0,0,0-.23.45,3.85,3.85,0,0,0-.16.48l-1.16-.32a4.46,4.46,0,0,1,.23-.79,3,3,0,0,1,.44-.83,2.5,2.5,0,0,1,.72-.65,2.11,2.11,0,0,1,1.08-.26,2.36,2.36,0,0,1,1,.21,7.5,7.5,0,0,1,.88.48l.94.56a1.77,1.77,0,0,0,1,.29.83.83,0,0,0,.48-.14,1,1,0,0,0,.34-.33,3.14,3.14,0,0,0,.23-.45,3.85,3.85,0,0,0,.16-.48Z" transform="translate(-140.96 -139.33)"/><path class="cls-4" d="M186.33,200a5.35,5.35,0,0,0,1.22-.11,2,2,0,0,0,.78-.32,1.16,1.16,0,0,0,.4-.51,1.61,1.61,0,0,0,.12-.63,1.48,1.48,0,0,0-.24-.86,2.22,2.22,0,0,0-.66-.63,5.16,5.16,0,0,0-.94-.48c-.35-.15-.71-.28-1.09-.42s-.72-.28-1.08-.44a3.83,3.83,0,0,1-1-.6,3,3,0,0,1-.68-.85,2.62,2.62,0,0,1-.26-1.22,2.94,2.94,0,0,1,.77-2.1,3.73,3.73,0,0,1,2.22-1v-2.08h1.5v2a9.18,9.18,0,0,1,1.48.19,8.37,8.37,0,0,1,1.08.31l-.34,1.42c-.28-.11-.64-.22-1.07-.34a6.77,6.77,0,0,0-1.64-.17,2.86,2.86,0,0,0-1.66.41,1.33,1.33,0,0,0-.58,1.17,1.41,1.41,0,0,0,.17.71,1.83,1.83,0,0,0,.5.5,3.76,3.76,0,0,0,.75.4c.29.13.62.25,1,.39s.91.36,1.34.55a5,5,0,0,1,1.13.7,3.21,3.21,0,0,1,.78,1,3,3,0,0,1,.29,1.35,2.83,2.83,0,0,1-.79,2,3.91,3.91,0,0,1-2.42,1v2.32h-1.5v-2.26a7.82,7.82,0,0,1-2.06-.29,6,6,0,0,1-1.17-.46l.44-1.4a9.87,9.87,0,0,0,1.3.5A6.6,6.6,0,0,0,186.33,200Z" transform="translate(-140.96 -139.33)"/></svg>