<svg id="Layer_1" data-name="Layer 1" xmlns="http://www.w3.org/2000/svg" viewBox="0 0 264.76 121.79"><defs><style>.cls-1{fill:#f27035;}.cls-2{fill:#ef5b35;}.cls-3{fill:#f28635;}.cls-4{fill:#ef4b35;}.cls-5{fill:#ed3737;}.cls-6{fill:#942a5c;}.cls-7{fill:#181f4e;}.cls-8{fill:#fff;}.cls-11,.cls-9{fill:none;}.cls-9{stroke:#f25835;stroke-miterlimit:10;}.cls-10{opacity:0.6;}.cls-12{fill:#f25635;}.cls-13{fill:#f21e35;}.cls-14{fill:#3e0024;opacity:0.56;}.cls-15{font-size:1.73px;fill:#8adf32;font-family:UbuntuMono-Regular, Ubuntu Mono;}</style></defs><title>laptop</title><polygon class="cls-1" points="136.79 0 10.59 0 34.42 98.84 161.5 98.84 136.79 0"/><polygon class="cls-2" points="10.59 0 0 3.53 22.95 98.84 35.3 98.84 10.59 0"/><polygon class="cls-3" points="23.91 99.3 160.88 114.64 264.13 104.14 159.56 93.57 23.91 99.3"/><polygon class="cls-4" points="22.95 8.82 42.36 90.02 150.03 86.49 128.85 8.82 22.95 8.82"/><polyline class="cls-2" points="22.52 97.13 26.48 112.96 155.32 121.79 162.37 111.58 35.3 98.84"/><polygon class="cls-5" points="264.76 104.14 257.7 112.96 155.32 121.79 162.12 111.6 264.76 104.14"/><polygon class="cls-6" points="35.99 21.33 44.48 56.82 91.53 55.27 82.28 21.33 35.99 21.33"/><path class="cls-7" d="M246.47,175.57" transform="translate(-84.1 -146.85)"/><polygon class="cls-8" points="35.99 21.33 35.3 18.49 81.64 18.49 82.28 21.33 35.99 21.33"/><path class="cls-9" d="M278.09,256.13" transform="translate(-84.1 -146.85)"/><g class="cls-10"><polygon class="cls-11" points="151.56 98.57 138.79 97.2 133.19 97.51 145.95 98.88 151.56 98.57"/><polygon class="cls-11" points="161.15 98.03 148.38 96.66 142.5 96.99 155.27 98.36 161.15 98.03"/><polygon class="cls-11" points="178.79 98.36 172.92 98.69 185.68 100.06 191.56 99.73 178.79 98.36"/><polygon class="cls-11" points="169.21 98.9 163.33 99.23 176.09 100.6 181.97 100.27 169.21 98.9"/><polygon class="cls-11" points="142.24 99.09 129.48 97.72 123.6 98.05 136.36 99.42 142.24 99.09"/><polygon class="cls-11" points="104.01 101.23 91.24 99.86 85.37 100.19 98.13 101.56 104.01 101.23"/><polygon class="cls-11" points="113.48 100.7 100.71 99.33 94.95 99.65 107.72 101.02 113.48 100.7"/><polygon class="cls-11" points="132.65 99.63 119.89 98.26 114.01 98.58 126.78 99.95 132.65 99.63"/><polygon class="cls-11" points="123.07 100.16 110.3 98.79 104.42 99.12 117.19 100.49 123.07 100.16"/><polygon class="cls-11" points="170.73 97.5 157.97 96.13 152.09 96.46 164.86 97.83 170.73 97.5"/><polygon class="cls-11" points="159.62 99.44 154.01 99.75 166.78 101.12 172.38 100.8 159.62 99.44"/><polygon class="cls-11" points="109.37 104.33 115.25 104 102.48 102.63 96.6 102.96 109.37 104.33"/><polygon class="cls-11" points="112.07 102.09 106.19 102.42 118.96 103.79 124.83 103.46 112.07 102.09"/><polygon class="cls-11" points="140.72 100.49 134.84 100.82 147.6 102.19 153.48 101.86 140.72 100.49"/><polygon class="cls-11" points="131.13 101.03 125.25 101.36 138.01 102.72 143.89 102.4 131.13 101.03"/><polygon class="cls-11" points="121.54 101.56 115.78 101.89 128.54 103.25 134.3 102.93 121.54 101.56"/><polygon class="cls-11" points="150.3 99.95 144.43 100.28 157.19 101.65 163.07 101.33 150.3 99.95"/><polygon class="cls-11" points="216.09 101.76 221.97 101.43 209.21 100.06 203.33 100.39 216.09 101.76"/><polygon class="cls-11" points="184.16 101.46 196.92 102.83 202.8 102.5 190.03 101.13 184.16 101.46"/><polygon class="cls-11" points="193.74 100.93 206.51 102.3 212.38 101.97 199.62 100.6 193.74 100.93"/><polygon class="cls-11" points="174.84 101.98 187.6 103.35 193.21 103.04 180.44 101.67 174.84 101.98"/><polygon class="cls-11" points="165.25 102.52 178.02 103.89 183.89 103.56 171.13 102.19 165.25 102.52"/><polygon class="cls-11" points="94.42 101.76 81.66 100.39 75.78 100.72 88.54 102.09 94.42 101.76"/><polygon class="cls-11" points="195.27 99.53 201.15 99.2 188.38 97.83 182.5 98.16 195.27 99.53"/><polygon class="cls-11" points="174.44 97.29 180.32 96.96 167.56 95.59 161.68 95.92 174.44 97.29"/><polygon class="cls-11" points="155.66 103.05 168.43 104.42 174.3 104.09 161.54 102.73 155.66 103.05"/><polygon class="cls-11" points="107.84 105.73 120.61 107.1 126.48 106.77 113.72 105.4 107.84 105.73"/><polygon class="cls-11" points="92.89 103.16 87.02 103.49 99.78 104.86 105.66 104.53 92.89 103.16"/><polygon class="cls-11" points="72.07 100.93 66.19 101.26 78.95 102.63 84.83 102.3 72.07 100.93"/><polygon class="cls-11" points="117.43 105.19 130.19 106.56 136.07 106.23 123.31 104.86 117.43 105.19"/><polygon class="cls-11" points="146.08 103.59 158.84 104.96 164.72 104.63 151.95 103.26 146.08 103.59"/><polygon class="cls-11" points="127.02 104.66 139.78 106.03 145.66 105.7 132.89 104.33 127.02 104.66"/><polygon class="cls-11" points="136.6 104.12 149.37 105.49 155.13 105.17 142.37 103.8 136.6 104.12"/><path class="cls-12" d="M260.73,242.15l-7-.71-6.48-.07-3.71.21-5.88.33-3.71.21-5.87.33-3.71.2-5.88.33-3.71.21-5.61.31-3.71.21-5.88.33-3.71.21-5.87.32-3.71.21-5.88.33-3.71.21-5.76.32-3.71.21-5.88.33-3.71.2-5.88.33-3.71.21-5.87.33-3.72.21-5.87.32,8.06.87,5.88-.33,12.76,1.37-5.88.33,8.07.86,5.87-.33,12.77,1.37-5.88.33,8.06.87,5.88-.33L201,254.16l-5.87.33,8.06.86,5.87-.33,3.71-.2,5.88-.33,3.71-.21,5.88-.33,3.71-.21,5.88-.32,3.71-.21,5.76-.32,3.71-.21,5.87-.33,3.72-.21,5.87-.32,3.71-.21,5.88-.33,3.71-.21,5.61-.31,3.71-.21,5.87-.33,3.72-.2,5.87-.33,3.71-.21,5.88-.33,3.71-.21,5.69-.31-8.06-.87-5.69.32L297,246.71l5.7-.32-8.11-.82-5.65.27-12.76-1.37,5.19-.24-8-.8-5.28.18-12.77-1.37Zm-18.67.83,12.77,1.37-5.88.33-12.76-1.37Zm-51.77,6.3,5.87-.33,12.77,1.37-5.88.33Zm9.05,1.57-5.88.33-12.76-1.37,5.88-.33Zm.54-2.11,5.76-.32,12.76,1.37-5.76.32Zm9.47-.53,5.87-.33L228,249.25l-5.88.33Zm9.58-.54,5.88-.32,12.76,1.37-5.87.32Zm9.59-.53,5.88-.33,12.76,1.37-5.87.33Zm9.59-.54,5.61-.31,12.76,1.37-5.61.31Zm9.32-.52,5.87-.33,12.77,1.37-5.88.33Zm9.58-.53,5.88-.33,12.76,1.37-5.87.33Zm-24.53-2,12.76,1.37-5.88.33-12.76-1.37Zm-9.59.53,12.76,1.37-5.6.32-12.77-1.37Zm-9.32.53L226.34,246l-5.88.32L207.7,244.9Zm-9.58.53,12.76,1.37-5.88.33-12.76-1.37Zm-9.59.54L207.16,247l-5.87.33L188.52,246Zm-9.59.53,12.76,1.37-5.76.32-12.76-1.36Zm-9.47.53,12.76,1.37-5.87.33L169.46,247Zm-9.59.54,12.77,1.37-5.88.33-12.77-1.37Zm-15.46.86,5.87-.33,12.77,1.37-5.88.33Zm20.82,2.24L177,250l12.76,1.37-5.87.33ZM204.7,254l-12.76-1.37,5.87-.33,12.77,1.37Zm9.59-.53-12.76-1.37,5.87-.33,12.77,1.37Zm9.59-.54-12.77-1.37,5.88-.33,12.76,1.37Zm9.59-.54L220.7,251l5.76-.32L239.23,252Zm9.47-.53-12.77-1.37,5.88-.32,12.76,1.37Zm9.58-.53-12.76-1.37,5.88-.33L258.4,251Zm9.59-.54-12.76-1.37,5.87-.33L268,250.41Zm9.59-.53-12.76-1.37,5.6-.32,12.76,1.37Zm9.32-.52-12.77-1.37,5.88-.33,12.76,1.37Zm9.58-.54-12.76-1.37,5.88-.33,12.76,1.37Zm15.47-.86-5.88.32-12.76-1.37,5.87-.32Zm-20.83-2.24-5.87.33L266.6,245l5.88-.33Zm-20.82-2.23-5.88.33-12.76-1.37,5.87-.33Z" transform="translate(-84.1 -146.85)"/></g><ellipse class="cls-13" cx="164.26" cy="166.77" rx="0.78" ry="1.1" transform="translate(-146.18 -39.76) rotate(-30.66)"/><ellipse class="cls-14" cx="161.45" cy="166.77" rx="0.78" ry="1.1" transform="translate(-146.57 -41.2) rotate(-30.66)"/><ellipse class="cls-14" cx="158.61" cy="166.77" rx="0.78" ry="1.1" transform="translate(-146.97 -42.65) rotate(-30.66)"/><text class="cls-15" transform="translate(38.16 24.82)">sean@computer:<tspan class="cls-8" x="12.09" y="0">~$ Hi!</tspan></text></svg>