<svg id="Layer_1" data-name="Layer 1" xmlns="http://www.w3.org/2000/svg" viewBox="0 0 171.93 173.97"><defs><style>.cls-1{fill:#069;}.cls-2{fill:#fff;}</style></defs><title>LinkedIn_logo</title><path class="cls-1" d="M285.16,269.58A17.36,17.36,0,0,1,267.83,287H130.56a17.36,17.36,0,0,1-17.34-17.39V130.4A17.37,17.37,0,0,1,130.56,113H267.83a17.37,17.37,0,0,1,17.33,17.4Z" transform="translate(-113.22 -113)"/><path class="cls-2" d="M169.15,155.54c0,6.39-4.71,11.57-12.47,11.57-7.31,0-12-5.18-12-11.57S149.52,144,157,144,169,149,169.15,155.54Zm-23.89,95.12V176.24h23.13v74.42Z" transform="translate(-113.22 -113)"/><path class="cls-2" d="M182.24,200c0-9.28-.31-17-.61-23.74h20.09l1.06,10.35h.46c3-4.87,10.5-12,23-12,15.22,0,26.63,10.2,26.63,32.11v44H229.72V209.41c0-9.58-3.35-16.13-11.72-16.13-6.39,0-10.19,4.42-11.87,8.68a16.61,16.61,0,0,0-.76,5.78v42.92H182.24Z" transform="translate(-113.22 -113)"/></svg>